<svg xmlns="http://www.w3.org/2000/svg" width="100" height="37" viewBox="0 0 100 37">
    <g data-name="그룹 30180" style="opacity:.4">
        <g data-name="그룹 30178">
            <path data-name="패스 421" d="M135.431 67.264a1.841 1.841 0 0 1-.826-.183l-.566 1.075a3.3 3.3 0 0 0 1.366.26c1.208 0 2.166-.907 2.574-2.421l.994-3.695h-1.249l-.978 3.649c-.229.851-.693 1.315-1.315 1.315z" transform="translate(-67.655 -31.477)" style="fill:#fff"/>
            <path data-name="패스 422" d="m143.25 67.433-.046.168a1.837 1.837 0 0 0 .183 1.626 1.947 1.947 0 0 0 1.621.622 3.905 3.905 0 0 0 2-.561l-.082-.846a3.559 3.559 0 0 1-1.585.367 1.027 1.027 0 0 1-.8-.306.73.73 0 0 1-.138-.612v-.031h2.961l.158-.586a1.84 1.84 0 0 0-.143-1.621 1.581 1.581 0 0 0-1.335-.515 2.946 2.946 0 0 0-2.8 2.3zm3.18-.459-.01.031h-1.789l.02-.051a1.178 1.178 0 0 1 1.131-.831.708.708 0 0 1 .581.229.7.7 0 0 1 .066.627z" transform="translate(-72.1 -32.87)" style="fill:#fff"/>
            <path data-name="패스 423" d="M157.272 65.742a1.817 1.817 0 0 0-1.5-.622 3.2 3.2 0 0 0-2.956 2.354l-.031.122a1.857 1.857 0 0 0 .2 1.646 1.8 1.8 0 0 0 1.483.617 3.2 3.2 0 0 0 2.971-2.354l.031-.117a1.843 1.843 0 0 0-.209-1.646zm-1.065 1.631-.061.234a1.514 1.514 0 0 1-1.376 1.284.805.805 0 0 1-.647-.28 1.161 1.161 0 0 1-.087-1.029l.056-.214a1.5 1.5 0 0 1 1.376-1.264.776.776 0 0 1 .647.28 1.127 1.127 0 0 1 .087 1z" transform="translate(-76.801 -32.86)" style="fill:#fff"/>
            <path data-name="패스 424" d="M167.2 65.683a1.187 1.187 0 0 0-.978-.4 2.5 2.5 0 0 0-1.575.545l-.1.076.148-.55h-1.162l-1.187 4.424h1.187l.805-2.986a1.611 1.611 0 0 1 1.07-.484.708.708 0 0 1 .606.224.645.645 0 0 1 .066.571l-.719 2.676h1.177l.785-2.92a1.329 1.329 0 0 0-.127-1.177z" transform="translate(-81.538 -32.938)" style="fill:#fff"/>
            <path data-name="패스 425" d="M173.038 66.6a1.112 1.112 0 0 0 .071.851 1.052 1.052 0 0 0 .688.459l.443.1a.6.6 0 0 1 .392.2.353.353 0 0 1 .015.275c-.066.245-.362.392-.79.392a2.761 2.761 0 0 1-1.238-.341l-.52.953a3.384 3.384 0 0 0 1.605.362 2.142 2.142 0 0 0 2.171-1.473 1.051 1.051 0 0 0-.051-.851 1.113 1.113 0 0 0-.785-.438l-.387-.076a.555.555 0 0 1-.392-.2.367.367 0 0 1-.031-.28c.071-.26.423-.433.877-.433a1.851 1.851 0 0 1 .973.29l.535-.912a3.106 3.106 0 0 0-1.458-.3 2.064 2.064 0 0 0-2.13 1.417z" transform="translate(-86.319 -32.889)" style="fill:#fff"/>
            <path data-name="패스 426" d="M185.128 65.645a1.588 1.588 0 0 0-1.335-.515 2.946 2.946 0 0 0-2.8 2.3l-.046.168a1.837 1.837 0 0 0 .183 1.626 1.947 1.947 0 0 0 1.621.622 3.9 3.9 0 0 0 2-.561l-.082-.846a3.558 3.558 0 0 1-1.585.367 1.027 1.027 0 0 1-.8-.306.73.73 0 0 1-.138-.612v-.031h2.961l.158-.586a1.841 1.841 0 0 0-.143-1.621zm-.958 1.325-.01.031h-1.789l.02-.051a1.178 1.178 0 0 1 1.131-.831.708.708 0 0 1 .581.229.7.7 0 0 1 .066.627z" transform="translate(-90.607 -32.865)" style="fill:#fff"/>
        </g>
        <g data-name="그룹 30179">
            <path data-name="패스 427" d="M0 49.867 9.056 38.38.02 49.867l-.02.02z" transform="translate(0 -18.821)" style="fill:#fff"/>
            <path data-name="패스 428" d="m14.28.05-2.528 14.071L1.31 27.361 6.213.05z" transform="translate(-.642 -.025)" style="fill:#fff"/>
            <path data-name="패스 429" d="M39.62 38.983h-8.959l-3.516-8.195-3.165-7.354 5.8-7.354 3.16 7.354z" transform="translate(-11.759 -7.885)" style="fill:#fff"/>
            <path data-name="패스 430" d="m33.442 0-11.8 14.973-.459.581-5.8 7.354-4.322 5.484s-.025.031-.036.041l-2.061 2.613H.02l-.02.026v-.025l9.056-11.488 1.386-1.759 1.773-2.247 5.8-7.359L22.3 2.762A7.244 7.244 0 0 1 27.989.005h5.443z" style="fill:#fff"/>
            <path data-name="패스 431" d="m33.442 0-11.8 14.973-.459.581-5.8 7.354-4.322 5.484s-.025.031-.036.041l-2.061 2.613H0l9.056-11.487 1.386-1.759 1.773-2.247 5.8-7.359L22.3 2.762A7.244 7.244 0 0 1 27.989.005h5.443z" style="fill:#fff"/>
        </g>
        <path data-name="패스 432" d="M97.436 39.38h-5.071l-1.605 8.934h20.691l.678-3.771H96.514z" transform="translate(-45.612 -19.952)" style="fill:#fff"/>
        <path data-name="패스 433" d="m125.289 4.11-1.177 6.554h-3.888l-.683 3.8h3.894l-1.784 9.912h5.106l3.638-20.266z" transform="translate(-59.907 -2.015)" style="fill:#fff"/>
        <path data-name="패스 434" d="m174.009 4.11-1.177 6.554h-3.659l-.683 3.8h3.659l-2.971 16.553h4.469l4.832-26.907z" transform="translate(-84.548 -2.015)" style="fill:#fff"/>
        <path data-name="패스 435" d="m186.581 4.11-4.831 26.908h4.469l4.832-26.908z" transform="translate(-91.051 -2.015)" style="fill:#fff"/>
        <path data-name="패스 436" d="M147.016 37.6z" transform="translate(-73.102 -18.913)" style="fill:#fff"/>
        <path data-name="패스 437" d="M144.938 38.91c-.306.194-.627.387-.958.576.331-.186.652-.377.958-.576z" transform="translate(-72.003 -19.572)" style="fill:#fff"/>
        <path data-name="패스 438" d="M142.54 40.27z" transform="translate(-70.749 -20.256)" style="fill:#fff"/>
        <path data-name="패스 439" d="m140.538 38.668-.968-2.828z" transform="translate(-69.798 -18.057)" style="fill:#fff"/>
        <path data-name="패스 440" d="M152.207 33.41z" transform="translate(-75.794 -16.806)" style="fill:#fff"/>
        <path data-name="패스 441" d="M153.642 31.91z" transform="translate(-76.524 -16.052)" style="fill:#fff"/>
        <path data-name="패스 442" d="M148.835 36.25z" transform="translate(-74.021 -18.235)" style="fill:#fff"/>
        <path data-name="패스 443" d="M150.684 34.75c-.234.214-.484.423-.744.632.255-.209.504-.418.744-.632z" transform="translate(-74.981 -17.48)" style="fill:#fff"/>
        <path data-name="패스 444" d="M154.47 31a20.328 20.328 0 0 1 0 0z" transform="translate(-77.243 -15.252)" style="fill:#fff"/>
        <path data-name="패스 445" d="M156.717 32.562z" transform="translate(-78.176 -16.052)" style="fill:#fff"/>
        <path data-name="패스 446" d="M155.57 30.32c.1.224.209.454.321.678a9.09 9.09 0 0 1-.321-.678z" transform="translate(-77.79 -15.252)" style="fill:#fff"/>
        <path data-name="패스 447" d="M151.487 34.59c-.031.025-.056.051-.087.076.031-.025.056-.051.087-.076z" transform="translate(-75.701 -17.393)" style="fill:#fff"/>
        <path data-name="패스 448" d="m152.932 33.19-.112.112z" transform="translate(-76.412 -16.69)" style="fill:#fff"/>
        <path data-name="패스 449" d="M154.357 31.65c-.041.046-.076.092-.117.133z" transform="translate(-77.122 -15.916)" style="fill:#fff"/>
        <path data-name="패스 450" d="m156.271 31.783-.071-.133c.02.05.046.087.071.133z" transform="translate(-78.101 -15.916)" style="fill:#fff"/>
        <path data-name="패스 451" d="m157.151 33.3-.071-.107c.02.033.046.068.071.107z" transform="translate(-78.541 -16.69)" style="fill:#fff"/>
        <path data-name="패스 452" d="m138.92 33.94.331.968-.331-.968z" transform="translate(-69.464 -17.077)" style="fill:#fff"/>
        <path data-name="패스 453" d="M141.47 41.39z" transform="translate(-70.735 -20.812)" style="fill:#fff"/>
        <path data-name="패스 454" d="M147.912 37.46c-.031.025-.066.046-.1.071.029-.025.064-.046.1-.071z" transform="translate(-73.906 -18.837)" style="fill:#fff"/>
        <path data-name="패스 455" d="M149.788 35.99a3.225 3.225 0 0 1-.168.132c.056-.045.112-.091.168-.132z" transform="translate(-74.812 -18.098)" style="fill:#fff"/>
        <path data-name="패스 456" d="m146.023 38.71-.163.107.163-.107z" transform="translate(-72.932 -19.466)" style="fill:#fff"/>
        <path data-name="패스 457" d="m143.779 40.04-.209.117c.071-.041.143-.076.209-.117z" transform="translate(-71.788 -20.135)" style="fill:#fff"/>
        <path data-name="패스 458" d="M158.949 26.557c.24.194.489.387.749.576.056.041.112.076.168.117.275.194.561.382.866.571l2.665-3.8a12.686 12.686 0 0 1-1.463-1.035c-.143-.117-.28-.234-.413-.357s-.24-.224-.352-.336c-2.568-2.6-2.512-5.636-1.982-8.577a18.486 18.486 0 0 1-3.618 8.46c.1.224.209.454.321.678.02.046.046.087.071.132.117.219.24.438.377.652.02.036.046.071.071.107.133.2.27.408.423.606.02.025.036.051.056.076.163.214.336.423.515.632.041.046.076.092.117.133.189.209.382.418.6.622.025.025.051.046.076.071a14.559 14.559 0 0 0 .759.668z" transform="translate(-78.213 -7)" style="fill:#fff"/>
        <path data-name="패스 459" d="m147.7 4.11-.882 4.9c-.041.224-.087.454-.132.678l-.076.347-.076.336c-.025.1-.056.2-.082.3-.036.127-.066.255-.1.382-.061.2-.122.4-.194.6-.01.025-.015.051-.025.082a11.728 11.728 0 0 1-3.547 5.188c-.02.02-.041.036-.061.056-.173.148-.357.285-.545.433-.076.061-.143.117-.224.178-.413.306-.877.606-1.361.9-.464.28-.948.555-1.483.826l.331.968.968 2.828c.372-.183.724-.377 1.07-.571.071-.041.143-.076.209-.117.331-.189.652-.377.958-.576l.163-.107c.285-.183.566-.372.836-.561.031-.025.066-.046.1-.071.285-.2.556-.413.815-.617.056-.046.112-.092.168-.133.255-.209.5-.418.744-.632.031-.025.056-.051.087-.076.219-.2.433-.4.637-.606l.112-.112c.214-.214.413-.433.612-.652l.117-.133c.194-.224.387-.448.566-.678a18.563 18.563 0 0 0 3.618-8.46l.882-4.9h-4.194z" transform="translate(-69.65 -2.015)" style="fill:#fff"/>
        <path data-name="패스 460" d="M105.807 20.843 104.9 25.9h4.011l1.6-8.929h-3.6l-3.311 3.872z" transform="translate(-51.872 -8.598)" style="fill:#fff"/>
        <path data-name="패스 461" d="m105.568 7.878.7-3.878H88.333l-.693 3.878h7.247L84.74 19.742l3.109 2.339 6.5-7.6 3.313-3.873L100 7.878z" transform="translate(-42.588 -1.961)" style="fill:#fff"/>
        <path data-name="패스 462" d="M66.642 29.415H55.4l.663-3.685H67.3z" transform="translate(-27.77 -12.972)" style="fill:#fff"/>
    </g>
</svg>
