<svg xmlns="http://www.w3.org/2000/svg" xmlns:xlink="http://www.w3.org/1999/xlink" width="204" height="76" viewBox="0 0 204 76">
    <defs>
        <linearGradient id="kly951k2wb" x1="-31.36" y1="-4.282" x2="-31.363" y2="-3.52" gradientUnits="objectBoundingBox">
            <stop offset="0" stop-color="#0066b2"/>
            <stop offset="1" stop-color="#184e82"/>
        </linearGradient>
        <linearGradient id="66kr6bqnfa" x1=".607" y1=".024" x2=".424" y2=".84" gradientUnits="objectBoundingBox">
            <stop offset="0" stop-color="#005ac8"/>
            <stop offset="1" stop-color="#0a4682"/>
        </linearGradient>
        <linearGradient id="gutbrcglbc" x1=".845" y1="1.005" x2=".25" y2=".331" gradientUnits="objectBoundingBox">
            <stop offset="0" stop-color="#005ac8"/>
            <stop offset=".33" stop-color="#0352ae"/>
            <stop offset=".81" stop-color="#0a4682"/>
        </linearGradient>
        <linearGradient id="arhixlfcnd" x1=".173" y1=".991" x2=".835" y2="-.004" gradientUnits="objectBoundingBox">
            <stop offset=".09" stop-color="#005ac8"/>
            <stop offset="1" stop-color="#0a4682"/>
        </linearGradient>
        <linearGradient id="iyhmd1k8se" x1="-.058" y1=".509" x2="1.321" y2=".488" xlink:href="#66kr6bqnfa"/>
        <linearGradient id="4d8geg5fjf" x1="-1.473" y1=".507" x2="1.242" y2=".498" xlink:href="#66kr6bqnfa"/>
        <linearGradient id="edepidx1pg" x1="-.823" y1=".502" x2="1.653" y2=".498" xlink:href="#66kr6bqnfa"/>
        <linearGradient id="mzk0mrzwyh" x1="-1.61" y1=".503" x2="1.048" y2=".499" xlink:href="#66kr6bqnfa"/>
        <linearGradient id="vw0zj9k9mi" x1="0" y1=".5" x2="1" y2=".5" xlink:href="#66kr6bqnfa"/>
        <linearGradient id="2rttsb1ubj" x1="0" y1=".504" x2="1" y2=".504" xlink:href="#66kr6bqnfa"/>
        <linearGradient id="j3glrvkvbk" x1="0" y1=".499" x2="1" y2=".499" xlink:href="#66kr6bqnfa"/>
        <linearGradient id="kco0rii15l" x1="0" y1=".496" x2="1" y2=".496" xlink:href="#66kr6bqnfa"/>
        <linearGradient id="ri9x2vy29m" x1=".008" y1=".5" x2="1" y2=".5" xlink:href="#66kr6bqnfa"/>
        <linearGradient id="6kyovht6nn" x1="-.006" y1=".504" x2="1" y2=".504" xlink:href="#66kr6bqnfa"/>
        <linearGradient id="2bi0galo9o" x1=".007" y1=".5" x2="1" y2=".5" xlink:href="#66kr6bqnfa"/>
        <linearGradient id="6nu7e5wt6p" x1="0" y1=".496" x2=".991" y2=".496" xlink:href="#66kr6bqnfa"/>
        <linearGradient id="16eaez30kq" x1="0" y1=".496" x2="1.016" y2=".496" xlink:href="#66kr6bqnfa"/>
        <linearGradient id="7dtv6p7u3r" x1="-73.471" y1=".533" x2="114.884" y2=".533" xlink:href="#66kr6bqnfa"/>
        <linearGradient id="nzwwxblr1s" x1="-63.181" y1=".5" x2="82.318" y2=".5" xlink:href="#66kr6bqnfa"/>
        <linearGradient id="t8l4uz05ft" x1="-66.653" y1=".5" x2="72.567" y2=".5" xlink:href="#66kr6bqnfa"/>
        <linearGradient id="jsafk1vvku" x1="-123.501" y1=".5" x2="105.286" y2=".5" xlink:href="#66kr6bqnfa"/>
        <linearGradient id="gpv6fhryfv" x1="-129.786" y1=".524" x2="98.929" y2=".524" xlink:href="#66kr6bqnfa"/>
        <linearGradient id="12o403t9vw" x1="0" y1=".5" x2="49.245" y2=".5" xlink:href="#66kr6bqnfa"/>
        <linearGradient id="nnbekansmx" x1="-44.451" y1=".5" x2="115.652" y2=".5" xlink:href="#66kr6bqnfa"/>
        <linearGradient id="372uyjltky" x1="-32.424" y1=".5" x2="64.575" y2=".5" xlink:href="#66kr6bqnfa"/>
        <linearGradient id="iawkl52jlz" x1="-21.687" y1=".476" x2="78.342" y2=".476" xlink:href="#66kr6bqnfa"/>
        <linearGradient id="hzd3ur4lkA" x1="-11.341" y1=".478" x2="66.756" y2=".478" xlink:href="#66kr6bqnfa"/>
        <linearGradient id="1i4lpolvqB" x1="1.113" y1=".642" x2=".34" y2=".443" xlink:href="#66kr6bqnfa"/>
        <linearGradient id="m9iml1le5C" x1=".349" y1=".514" x2="1.164" y2=".224" xlink:href="#66kr6bqnfa"/>
        <linearGradient id="aohjzo1wsD" x1="1.066" y1=".932" x2=".378" y2=".303" xlink:href="#66kr6bqnfa"/>
        <linearGradient id="7thqfxhnjE" x1=".196" y1=".499" x2=".941" y2=".479" xlink:href="#66kr6bqnfa"/>
    </defs>
    <g data-name="그룹 30180">
        <g data-name="그룹 30178">
            <path data-name="패스 421" d="M136.831 72.259a3.694 3.694 0 0 1-1.656-.368l-1.135 2.157a6.623 6.623 0 0 0 2.74.521c2.423 0 4.346-1.82 5.164-4.857l1.994-7.413h-2.505l-1.963 7.321c-.46 1.708-1.391 2.638-2.638 2.638z" transform="translate(2.516 1.307)" style="fill:#0050aa"/>
            <path data-name="패스 422" d="m143.4 69.741-.092.337a3.685 3.685 0 0 0 .368 3.262 3.907 3.907 0 0 0 3.252 1.247 7.835 7.835 0 0 0 4.008-1.125l-.164-1.7a7.14 7.14 0 0 1-3.18.736 2.061 2.061 0 0 1-1.6-.613 1.465 1.465 0 0 1-.276-1.227V70.6h5.941l.317-1.176a3.693 3.693 0 0 0-.286-3.252 3.173 3.173 0 0 0-2.679-1.033 5.912 5.912 0 0 0-5.624 4.611zm6.38-.92-.02.061h-3.589l.041-.1a2.363 2.363 0 0 1 2.27-1.667 1.421 1.421 0 0 1 1.166.46 1.394 1.394 0 0 1 .133 1.258z" transform="translate(2.72 1.371)" style="fill:#0050aa"/>
            <path data-name="패스 423" d="M161.882 66.367a3.645 3.645 0 0 0-3.006-1.247 6.41 6.41 0 0 0-5.931 4.724l-.061.245a3.725 3.725 0 0 0 .409 3.3 3.619 3.619 0 0 0 2.975 1.237 6.417 6.417 0 0 0 5.961-4.724l.061-.235a3.7 3.7 0 0 0-.419-3.3zm-2.137 3.272-.123.47a3.037 3.037 0 0 1-2.761 2.577 1.615 1.615 0 0 1-1.3-.562 2.329 2.329 0 0 1-.174-2.065l.112-.429a3.014 3.014 0 0 1 2.761-2.536 1.558 1.558 0 0 1 1.3.562 2.26 2.26 0 0 1 .174 2z" transform="translate(2.936 1.37)" style="fill:#0050aa"/>
            <path data-name="패스 424" d="M172.084 66.088a2.382 2.382 0 0 0-1.963-.808 5.022 5.022 0 0 0-3.16 1.094l-.194.153.3-1.1h-2.331L162.35 74.3h2.382l1.616-5.992a3.231 3.231 0 0 1 2.147-.971 1.421 1.421 0 0 1 1.217.45 1.3 1.3 0 0 1 .133 1.145L168.4 74.3h2.362l1.575-5.859a2.666 2.666 0 0 0-.256-2.362z" transform="translate(3.153 1.374)" style="fill:#0050aa"/>
            <path data-name="패스 425" d="M173.981 68.033a2.23 2.23 0 0 0 .143 1.708 2.111 2.111 0 0 0 1.38.92l.89.2a1.193 1.193 0 0 1 .787.409.708.708 0 0 1 .031.552c-.133.491-.726.787-1.585.787a5.539 5.539 0 0 1-2.485-.685l-1.042 1.917a6.79 6.79 0 0 0 3.221.726 4.3 4.3 0 0 0 4.356-2.955 2.108 2.108 0 0 0-.1-1.708 2.233 2.233 0 0 0-1.577-.879l-.777-.153a1.114 1.114 0 0 1-.787-.409.735.735 0 0 1-.061-.562c.143-.521.849-.869 1.759-.869a3.715 3.715 0 0 1 1.953.583l1.074-1.83a6.232 6.232 0 0 0-2.924-.6 4.142 4.142 0 0 0-4.274 2.843z" transform="translate(3.372 1.372)" style="fill:#0050aa"/>
            <path data-name="패스 426" d="M189.439 66.163a3.186 3.186 0 0 0-2.679-1.033 5.912 5.912 0 0 0-5.624 4.611l-.092.337a3.685 3.685 0 0 0 .368 3.262 3.907 3.907 0 0 0 3.252 1.247 7.835 7.835 0 0 0 4.008-1.125l-.164-1.7a7.139 7.139 0 0 1-3.18.736 2.061 2.061 0 0 1-1.6-.613 1.464 1.464 0 0 1-.276-1.227V70.6h5.948l.317-1.176a3.693 3.693 0 0 0-.286-3.252zm-1.922 2.659-.02.061h-3.589l.041-.1a2.363 2.363 0 0 1 2.27-1.667 1.421 1.421 0 0 1 1.166.46 1.394 1.394 0 0 1 .133 1.258z" transform="translate(3.569 1.371)" style="fill:#0050aa"/>
        </g>
        <g data-name="그룹 30179">
            <path data-name="패스 427" d="M0 61.427 18.17 38.38.041 61.427 0 61.468z" transform="translate(0 .864)" style="fill:url(#kly951k2wb)"/>
            <path data-name="패스 428" d="m27.333.05-5.072 28.231L1.31 54.846 11.146.05z" transform="translate(.029 .001)" style="fill:url(#66kr6bqnfa)"/>
            <path data-name="패스 429" d="M55.361 62.031H37.385L30.33 45.589l-6.35-14.754L35.626 16.08l6.339 14.755z" transform="translate(.54 .362)" style="fill:url(#gutbrcglbc)"/>
            <path data-name="패스 430" d="M67.1 0 43.426 30.041l-.92 1.166-11.637 14.754-8.671 11s-.051.061-.072.082l-4.141 5.245H.041L0 62.342v-.051l18.17-23.047 2.781-3.528 3.558-4.509 11.636-14.765 8.6-10.9A14.534 14.534 0 0 1 56.156.01h10.92z" style="fill:#005a92"/>
            <path data-name="패스 431" d="M67.1 0 43.426 30.041l-.92 1.166-11.637 14.754-8.671 11s-.051.061-.072.082l-4.141 5.245H0l18.17-23.044 2.781-3.528 3.558-4.509 11.636-14.765 8.6-10.9A14.534 14.534 0 0 1 56.156.01h10.92z" style="fill:url(#arhixlfcnd)"/>
        </g>
        <path data-name="패스 432" d="M104.155 39.38H93.981L90.76 57.3h41.514l1.36-7.566H102.3z" transform="translate(1.755 .821)" style="fill:url(#iyhmd1k8se)"/>
        <path data-name="패스 433" d="m131.074 4.11-2.362 13.149h-7.8l-1.37 7.628h7.812l-3.579 19.888h10.245l7.3-40.665z" transform="translate(2.355 .092)" style="fill:url(#4d8geg5fjf)"/>
        <path data-name="패스 434" d="M179.564 4.11 177.2 17.259h-7.34l-1.37 7.628h7.342L169.87 58.1h8.967l9.694-53.99z" transform="translate(3.291 .092)" style="fill:url(#edepidx1pg)"/>
        <path data-name="패스 435" d="M191.443 4.11 181.75 58.1h8.967l9.694-53.99z" transform="translate(3.589 .092)" style="fill:url(#mzk0mrzwyh)"/>
        <path data-name="패스 436" d="M147.857 37.6z" transform="translate(2.921 .798)" style="fill:url(#vw0zj9k9mi)"/>
        <path data-name="패스 437" d="M145.9 38.91c-.614.389-1.258.777-1.922 1.155a35.782 35.782 0 0 0 1.922-1.155z" transform="translate(2.876 .825)" style="fill:url(#2rttsb1ubj)"/>
        <path data-name="패스 438" d="M143.617 40.27c-.7.389-1.4.767-2.147 1.145a46.408 46.408 0 0 0 2.147-1.145z" transform="translate(2.826 .854)" style="fill:url(#vw0zj9k9mi)"/>
        <path data-name="패스 439" d="m141.513 41.515-1.943-5.675z" transform="translate(2.788 .757)" style="fill:url(#j3glrvkvbk)"/>
        <path data-name="패스 440" d="M152.848 33.41z" transform="translate(3.029 .709)" style="fill:url(#kco0rii15l)"/>
        <path data-name="패스 441" d="M154.257 31.91z" transform="translate(3.058 .677)" style="fill:url(#ri9x2vy29m)"/>
        <path data-name="패스 442" d="M149.656 36.25z" transform="translate(2.957 .769)" style="fill:url(#6kyovht6nn)"/>
        <path data-name="패스 443" d="M151.433 34.75c-.47.429-.971.849-1.493 1.268a46.002 46.002 0 0 0 1.493-1.268z" transform="translate(2.996 .737)" style="fill:url(#2bi0galo9o)"/>
        <path data-name="패스 444" d="M154.47 31.68a33.23 33.23 0 0 1 0 0z" transform="translate(3.087 .643)" style="fill:url(#6nu7e5wt6p)"/>
        <path data-name="패스 445" d="M157.1 33.219z" transform="translate(3.125 .677)" style="fill:url(#vw0zj9k9mi)"/>
        <path data-name="패스 446" d="M155.57 30.32c.194.45.419.91.644 1.36-.235-.45-.45-.9-.644-1.36z" transform="translate(3.11 .643)" style="fill:url(#16eaez30kq)"/>
        <path data-name="패스 447" d="M151.574 34.59c-.061.051-.113.1-.174.153.061-.051.112-.102.174-.153z" transform="translate(3.028 .734)" style="fill:url(#7dtv6p7u3r)"/>
        <path data-name="패스 448" d="m153.045 33.19-.225.225z" transform="translate(3.056 .705)" style="fill:url(#nzwwxblr1s)"/>
        <path data-name="패스 449" d="M154.475 31.65c-.082.092-.153.184-.235.266z" transform="translate(3.084 .672)" style="fill:url(#t8l4uz05ft)"/>
        <path data-name="패스 450" d="M156.343 31.916c-.051-.092-.092-.174-.143-.266.041.092.092.174.143.266z" transform="translate(3.124 .672)" style="fill:url(#jsafk1vvku)"/>
        <path data-name="패스 451" d="M157.223 33.4c-.051-.072-.092-.143-.143-.215.041.077.092.148.143.215z" transform="translate(3.141 .705)" style="fill:url(#gpv6fhryfv)"/>
        <path data-name="패스 452" d="m138.92 33.94.665 1.943-.665-1.943z" transform="translate(2.777 .719)" style="fill:url(#12o403t9vw)"/>
        <path data-name="패스 453" d="M141.47 41.39z" transform="translate(2.829 .879)" style="fill:#fff"/>
        <path data-name="패스 454" d="M148.014 37.46c-.061.051-.133.092-.2.143.057-.051.129-.092.2-.143z" transform="translate(2.956 .795)" style="fill:url(#nnbekansmx)"/>
        <path data-name="패스 455" d="M149.957 35.99a7.828 7.828 0 0 1-.337.266c.112-.092.225-.184.337-.266z" transform="translate(2.992 .764)" style="fill:url(#372uyjltky)"/>
        <path data-name="패스 456" d="M146.187 38.71c-.112.072-.215.143-.327.215.112-.072.215-.143.327-.215z" transform="translate(2.917 .822)" style="fill:url(#iawkl52jlz)"/>
        <path data-name="패스 457" d="M143.989 40.04c-.143.082-.276.153-.419.235.143-.082.286-.153.419-.235z" transform="translate(2.871 .85)" style="fill:url(#hzd3ur4lkA)"/>
        <path data-name="패스 458" d="M162.349 39.477c.481.389.982.777 1.5 1.155.112.082.225.153.337.235.552.389 1.125.767 1.738 1.145l5.348-7.618a25.453 25.453 0 0 1-2.935-2.076c-.286-.235-.562-.47-.828-.716q-.368-.337-.706-.675c-5.153-5.225-5.041-11.309-3.978-17.209a37.09 37.09 0 0 1-7.26 16.974c.194.45.419.91.644 1.36.041.092.092.174.143.266.235.44.481.879.757 1.309.041.072.092.143.143.215.266.409.542.818.849 1.217.041.051.072.1.112.153.327.429.675.849 1.033 1.268.082.092.153.184.235.266.378.419.767.838 1.2 1.247.051.051.1.092.153.143.4.378.828.757 1.268 1.125.082.072.164.143.256.215z" transform="translate(3 .281)" style="fill:url(#1i4lpolvqB)"/>
        <path data-name="패스 459" d="m156.548 4.11-1.769 9.826c-.082.45-.174.91-.266 1.36l-.153.7-.153.675c-.051.2-.112.4-.164.6-.072.256-.133.511-.2.767-.123.4-.245.808-.389 1.207-.02.051-.031.1-.051.164a23.53 23.53 0 0 1-7.117 10.409c-.041.041-.082.072-.123.112-.348.3-.716.573-1.094.869-.153.123-.286.235-.45.358a37.048 37.048 0 0 1-2.73 1.81 43.47 43.47 0 0 1-2.975 1.656l.665 1.943 1.943 5.675a47.39 47.39 0 0 0 2.147-1.145c.143-.082.286-.153.419-.235a38.158 38.158 0 0 0 1.922-1.155c.112-.072.215-.143.327-.215a51.482 51.482 0 0 0 1.677-1.125c.061-.051.133-.092.2-.143a44.706 44.706 0 0 0 1.636-1.237c.112-.092.225-.184.337-.266a46.002 46.002 0 0 0 1.493-1.268c.061-.051.113-.1.174-.153.44-.4.869-.808 1.278-1.217l.225-.225c.429-.429.828-.869 1.227-1.309l.235-.266c.389-.45.777-.9 1.135-1.36a37.245 37.245 0 0 0 7.26-16.973l1.769-9.826h-8.415z" transform="translate(2.727 .092)" style="fill:url(#m9iml1le5C)"/>
        <path data-name="패스 460" d="m108.027 24.741-1.82 10.143h8.047l3.211-17.914h-7.219l-6.646 7.771z" transform="translate(2.053 .354)" style="fill:url(#aohjzo1wsD)"/>
        <path data-name="패스 461" d="M126.53 11.781 127.93 4H91.949l-1.391 7.781H105.1L84.74 35.585l6.237 4.693 13.047-15.245 6.646-7.771 4.693-5.481z" transform="translate(1.638 .09)" style="fill:url(#7thqfxhnjE)"/>
        <path data-name="패스 462" d="M77.956 33.123H55.4l1.329-7.393h22.546z" transform="translate(1.09 .543)" style="fill:#0050aa"/>
    </g>
</svg>
